<?xml version="1.0" encoding="UTF-8"?>
<svg xmlns="http://www.w3.org/2000/svg" xmlns:xlink="http://www.w3.org/1999/xlink" width="50px" height="50px" viewBox="0 0 50 50" version="1.1">
<g id="surface1">
<path style=" stroke:none;fill-rule:nonzero;fill:rgb(0%,0%,0%);fill-opacity:1;" d="M 30.554688 50.347656 C 20.378906 50.347656 10.375 50.347656 0.359375 50.347656 C 0.359375 33.703125 0.359375 17.058594 0.359375 0.382812 C 16.976562 0.382812 33.605469 0.382812 50.289062 0.382812 C 50.289062 17.015625 50.289062 33.679688 50.289062 50.347656 C 43.796875 50.347656 37.261719 50.347656 30.554688 50.347656 M 43.648438 24.585938 C 44.035156 24.160156 44.421875 23.734375 45.085938 23.253906 C 45.335938 22.757812 45.773438 22.269531 45.800781 21.757812 C 45.890625 20.046875 45.875 18.328125 45.820312 16.613281 C 45.785156 15.460938 45.613281 14.308594 45.386719 12.933594 C 43.011719 11.933594 40.574219 11.058594 38.277344 9.902344 C 36.289062 8.898438 34.519531 8.488281 32.636719 10.046875 C 31.914062 10.644531 30.980469 10.984375 30.160156 11.472656 C 29.085938 12.113281 28.035156 12.785156 26.964844 13.445312 C 30.25 15.167969 33.289062 16.855469 36.421875 18.355469 C 37.527344 18.886719 37.917969 19.460938 37.882812 20.664062 C 37.796875 23.683594 37.851562 26.707031 37.851562 30.085938 C 38.386719 29.460938 38.644531 29.15625 39.140625 28.8125 C 40.578125 27.433594 42.011719 26.050781 43.648438 24.585938 M 4.578125 13.347656 C 4.554688 15.480469 4.574219 17.613281 4.5 19.746094 C 4.4375 21.539062 4.496094 23.035156 6.292969 24.300781 C 8.484375 25.847656 10.292969 27.933594 12.535156 30.039062 C 12.535156 26.128906 12.535156 22.621094 12.761719 19.019531 C 16.292969 17.140625 19.824219 15.261719 23.480469 13.316406 C 20.746094 11.800781 18.3125 10.433594 15.855469 9.105469 C 15.503906 8.914062 14.96875 8.703125 14.664062 8.835938 C 11.378906 10.269531 8.125 11.769531 4.578125 13.347656 M 25.070312 41.558594 C 25.449219 41.367188 25.886719 41.25 26.1875 40.976562 C 27.800781 39.53125 29.390625 38.0625 30.957031 36.566406 C 32.675781 34.929688 34.355469 33.253906 36.097656 31.269531 C 36.097656 27.632812 36.097656 23.992188 36.097656 20.371094 C 32.441406 18.34375 28.804688 16.324219 25.175781 14.3125 C 21.652344 16.269531 18.113281 18.234375 14.296875 20.296875 C 14.273438 23.820312 14.246094 27.34375 14.25 30.867188 C 14.25 31.21875 14.324219 31.695312 14.554688 31.910156 C 18.007812 35.074219 21.492188 38.207031 25.070312 41.558594 Z M 25.070312 41.558594 "/>
<path style=" stroke:none;fill-rule:nonzero;fill:rgb(9.019608%,76.078433%,100%);fill-opacity:1;" d="M 14.578125 20.199219 C 18.113281 18.234375 21.652344 16.269531 25.175781 14.3125 C 28.804688 16.324219 32.441406 18.34375 36.097656 20.371094 C 36.097656 23.992188 36.097656 27.632812 35.957031 31.371094 C 35.679688 30.59375 35.453125 29.714844 35.433594 28.832031 C 35.382812 26.394531 35.417969 23.957031 35.417969 21.519531 C 35.242188 21.445312 35.070312 21.371094 34.898438 21.300781 C 31.710938 23.808594 28.519531 26.320312 25.234375 28.769531 C 23.34375 27.347656 21.523438 26.03125 19.773438 24.621094 C 18.003906 23.195312 16.308594 21.675781 14.578125 20.199219 Z M 14.578125 20.199219 "/>
<path style=" stroke:none;fill-rule:nonzero;fill:rgb(18.82353%,78.039217%,99.215686%);fill-opacity:1;" d="M 14.4375 20.246094 C 16.308594 21.675781 18.003906 23.195312 19.773438 24.621094 C 21.523438 26.03125 23.34375 27.347656 25.234375 28.929688 C 25.335938 32.554688 25.359375 35.957031 25.324219 39.359375 C 25.316406 40.023438 25.089844 40.683594 24.96875 41.347656 C 21.492188 38.207031 18.007812 35.074219 14.554688 31.910156 C 14.324219 31.695312 14.25 31.21875 14.25 30.867188 C 14.246094 27.34375 14.273438 23.820312 14.4375 20.246094 Z M 14.4375 20.246094 "/>
<path style=" stroke:none;fill-rule:nonzero;fill:rgb(7.450981%,71.764708%,95.686275%);fill-opacity:1;" d="M 25.019531 41.453125 C 25.089844 40.683594 25.316406 40.023438 25.324219 39.359375 C 25.359375 35.957031 25.335938 32.554688 25.332031 28.992188 C 28.519531 26.320312 31.710938 23.808594 34.898438 21.300781 C 35.070312 21.371094 35.242188 21.445312 35.417969 21.519531 C 35.417969 23.957031 35.382812 26.394531 35.433594 28.832031 C 35.453125 29.714844 35.679688 30.59375 35.933594 31.535156 C 34.355469 33.253906 32.675781 34.929688 30.957031 36.566406 C 29.390625 38.0625 27.800781 39.53125 26.1875 40.976562 C 25.886719 41.25 25.449219 41.367188 25.019531 41.453125 Z M 25.019531 41.453125 "/>
<path style=" stroke:none;fill-rule:nonzero;fill:rgb(9.019608%,76.078433%,100%);fill-opacity:1;" d="M 38.902344 28.855469 C 38.644531 29.15625 38.386719 29.460938 37.851562 30.085938 C 37.851562 26.707031 37.796875 23.683594 37.882812 20.664062 C 37.917969 19.460938 37.527344 18.886719 36.421875 18.355469 C 33.289062 16.855469 30.25 15.167969 26.964844 13.445312 C 28.035156 12.785156 29.085938 12.113281 30.160156 11.472656 C 30.980469 10.984375 31.914062 10.644531 32.636719 10.046875 C 34.519531 8.488281 36.289062 8.898438 38.277344 9.902344 C 40.574219 11.058594 43.011719 11.933594 45.402344 13.136719 C 45.324219 13.523438 45.230469 13.707031 45.019531 13.914062 C 43.003906 15.320312 41.101562 16.695312 39.21875 18.097656 C 38.960938 18.289062 38.632812 18.628906 38.636719 18.898438 C 38.6875 21.976562 38.792969 25.050781 38.890625 28.25 C 38.894531 28.53125 38.898438 28.695312 38.902344 28.855469 Z M 38.902344 28.855469 "/>
<path style=" stroke:none;fill-rule:nonzero;fill:rgb(9.019608%,76.47059%,100%);fill-opacity:1;" d="M 4.863281 13.253906 C 8.125 11.769531 11.378906 10.269531 14.664062 8.835938 C 14.96875 8.703125 15.503906 8.914062 15.855469 9.105469 C 18.3125 10.433594 20.746094 11.800781 23.480469 13.316406 C 19.824219 15.261719 16.292969 17.140625 12.546875 19.007812 C 9.839844 17.082031 7.351562 15.167969 4.863281 13.253906 Z M 4.863281 13.253906 "/>
<path style=" stroke:none;fill-rule:nonzero;fill:rgb(18.82353%,78.431374%,99.215686%);fill-opacity:1;" d="M 4.71875 13.300781 C 7.351562 15.167969 9.839844 17.082031 12.433594 19.058594 C 12.535156 22.621094 12.535156 26.128906 12.535156 30.039062 C 10.292969 27.933594 8.484375 25.847656 6.292969 24.300781 C 4.496094 23.035156 4.4375 21.539062 4.5 19.746094 C 4.574219 17.613281 4.554688 15.480469 4.71875 13.300781 Z M 4.71875 13.300781 "/>
<path style=" stroke:none;fill-rule:nonzero;fill:rgb(7.450981%,71.764708%,95.686275%);fill-opacity:1;" d="M 38.886719 28.128906 C 38.792969 25.050781 38.6875 21.976562 38.636719 18.898438 C 38.632812 18.628906 38.960938 18.289062 39.21875 18.097656 C 41.101562 16.695312 43.003906 15.320312 45.019531 14.078125 C 45.027344 17.246094 44.917969 20.277344 44.808594 23.308594 C 44.421875 23.734375 44.035156 24.160156 43.417969 24.628906 C 42.664062 24.972656 42.082031 25.203125 41.625 25.585938 C 40.675781 26.390625 39.796875 27.277344 38.886719 28.128906 Z M 38.886719 28.128906 "/>
<path style=" stroke:none;fill-rule:nonzero;fill:rgb(7.058824%,74.117649%,97.647059%);fill-opacity:1;" d="M 44.945312 23.28125 C 44.917969 20.277344 45.027344 17.246094 45.136719 14.054688 C 45.230469 13.707031 45.324219 13.523438 45.460938 13.25 C 45.613281 14.308594 45.785156 15.460938 45.820312 16.613281 C 45.875 18.328125 45.890625 20.046875 45.800781 21.757812 C 45.773438 22.269531 45.335938 22.757812 44.945312 23.28125 Z M 44.945312 23.28125 "/>
<path style=" stroke:none;fill-rule:nonzero;fill:rgb(7.058824%,74.117649%,97.647059%);fill-opacity:1;" d="M 38.890625 28.25 C 39.796875 27.277344 40.675781 26.390625 41.625 25.585938 C 42.082031 25.203125 42.664062 24.972656 43.316406 24.671875 C 42.011719 26.050781 40.578125 27.433594 39.023438 28.835938 C 38.898438 28.695312 38.894531 28.53125 38.890625 28.25 Z M 38.890625 28.25 "/>
</g>
</svg>
