<?xml version="1.0" encoding="UTF-8"?>
<svg xmlns="http://www.w3.org/2000/svg" xmlns:xlink="http://www.w3.org/1999/xlink" width="70px" height="70px" viewBox="0 0 70 70" version="1.1">
<g id="surface1">
<path style=" stroke:none;fill-rule:nonzero;fill:rgb(0%,0%,0%);fill-opacity:1;" d="M 42.777344 70.484375 C 28.53125 70.484375 14.527344 70.484375 0.503906 70.484375 C 0.503906 47.183594 0.503906 23.882812 0.503906 0.535156 C 23.765625 0.535156 47.046875 0.535156 70.40625 0.535156 C 70.40625 23.820312 70.40625 47.152344 70.40625 70.484375 C 61.316406 70.484375 52.167969 70.484375 42.777344 70.484375 M 61.105469 34.421875 C 61.648438 33.824219 62.1875 33.226562 63.121094 32.554688 C 63.46875 31.859375 64.082031 31.175781 64.121094 30.464844 C 64.246094 28.066406 64.222656 25.660156 64.148438 23.261719 C 64.097656 21.644531 63.859375 20.03125 63.542969 18.105469 C 60.214844 16.707031 56.800781 15.484375 53.589844 13.863281 C 50.804688 12.457031 48.328125 11.882812 45.691406 14.066406 C 44.679688 14.902344 43.371094 15.378906 42.226562 16.0625 C 40.722656 16.957031 39.246094 17.898438 37.753906 18.824219 C 42.351562 21.234375 46.605469 23.597656 50.988281 25.699219 C 52.535156 26.441406 53.082031 27.246094 53.035156 28.933594 C 52.914062 33.160156 52.996094 37.390625 52.996094 42.121094 C 53.742188 41.242188 54.101562 40.820312 54.800781 40.339844 C 56.808594 38.40625 58.816406 36.46875 61.105469 34.421875 M 6.40625 18.683594 C 6.375 21.671875 6.402344 24.660156 6.296875 27.640625 C 6.210938 30.15625 6.296875 32.246094 8.808594 34.019531 C 11.875 36.183594 14.410156 39.105469 17.550781 42.050781 C 17.550781 36.578125 17.550781 31.671875 17.867188 26.625 C 22.808594 23.996094 27.75 21.367188 32.875 18.644531 C 29.046875 16.519531 25.636719 14.609375 22.199219 12.746094 C 21.707031 12.480469 20.957031 12.183594 20.53125 12.371094 C 15.933594 14.378906 11.375 16.476562 6.40625 18.683594 M 35.101562 58.179688 C 35.625 57.914062 36.242188 57.75 36.664062 57.371094 C 38.917969 55.34375 41.148438 53.289062 43.34375 51.195312 C 45.746094 48.902344 48.097656 46.554688 50.539062 43.78125 C 50.539062 38.683594 50.539062 33.589844 50.539062 28.519531 C 45.417969 25.679688 40.328125 22.855469 35.246094 20.039062 C 30.3125 22.777344 25.359375 25.527344 20.011719 28.414062 C 19.984375 33.347656 19.945312 38.28125 19.949219 43.210938 C 19.949219 43.707031 20.050781 44.375 20.375 44.671875 C 25.207031 49.105469 30.085938 53.492188 35.101562 58.179688 Z M 35.101562 58.179688 "/>
<path style=" stroke:none;fill-rule:nonzero;fill:rgb(9.019608%,76.078433%,100%);fill-opacity:1;" d="M 20.410156 28.277344 C 25.359375 25.527344 30.3125 22.777344 35.246094 20.039062 C 40.328125 22.855469 45.417969 25.679688 50.539062 28.519531 C 50.539062 33.589844 50.539062 38.683594 50.335938 43.921875 C 49.953125 42.832031 49.636719 41.601562 49.609375 40.363281 C 49.535156 36.953125 49.582031 33.539062 49.582031 30.125 C 49.339844 30.023438 49.101562 29.921875 48.859375 29.820312 C 44.394531 33.335938 39.929688 36.847656 35.324219 40.277344 C 32.683594 38.289062 30.132812 36.445312 27.683594 34.472656 C 25.207031 32.472656 22.832031 30.347656 20.410156 28.277344 Z M 20.410156 28.277344 "/>
<path style=" stroke:none;fill-rule:nonzero;fill:rgb(18.82353%,78.039217%,99.215686%);fill-opacity:1;" d="M 20.210938 28.34375 C 22.832031 30.347656 25.207031 32.472656 27.683594 34.472656 C 30.132812 36.445312 32.683594 38.289062 35.332031 40.503906 C 35.472656 45.578125 35.5 50.339844 35.453125 55.105469 C 35.441406 56.035156 35.128906 56.960938 34.953125 57.886719 C 30.085938 53.492188 25.207031 49.105469 20.375 44.671875 C 20.050781 44.375 19.949219 43.707031 19.949219 43.210938 C 19.945312 38.28125 19.984375 33.347656 20.210938 28.34375 Z M 20.210938 28.34375 "/>
<path style=" stroke:none;fill-rule:nonzero;fill:rgb(7.450981%,71.764708%,95.686275%);fill-opacity:1;" d="M 35.027344 58.035156 C 35.128906 56.960938 35.441406 56.035156 35.453125 55.105469 C 35.5 50.339844 35.472656 45.578125 35.46875 40.589844 C 39.929688 36.847656 44.394531 33.335938 48.859375 29.820312 C 49.101562 29.921875 49.339844 30.023438 49.582031 30.125 C 49.582031 33.539062 49.535156 36.953125 49.609375 40.363281 C 49.636719 41.601562 49.953125 42.832031 50.304688 44.148438 C 48.097656 46.554688 45.746094 48.902344 43.34375 51.195312 C 41.148438 53.289062 38.917969 55.34375 36.664062 57.371094 C 36.242188 57.75 35.625 57.914062 35.027344 58.035156 Z M 35.027344 58.035156 "/>
<path style=" stroke:none;fill-rule:nonzero;fill:rgb(9.019608%,76.078433%,100%);fill-opacity:1;" d="M 54.464844 40.398438 C 54.101562 40.820312 53.742188 41.242188 52.996094 42.121094 C 52.996094 37.390625 52.914062 33.160156 53.035156 28.933594 C 53.082031 27.246094 52.535156 26.441406 50.988281 25.699219 C 46.605469 23.597656 42.351562 21.234375 37.753906 18.824219 C 39.246094 17.898438 40.722656 16.957031 42.226562 16.0625 C 43.371094 15.378906 44.679688 14.902344 45.691406 14.066406 C 48.328125 11.882812 50.804688 12.457031 53.589844 13.863281 C 56.800781 15.484375 60.214844 16.707031 63.5625 18.390625 C 63.453125 18.933594 63.324219 19.191406 63.027344 19.480469 C 60.207031 21.449219 57.542969 23.371094 54.90625 25.339844 C 54.546875 25.605469 54.085938 26.082031 54.09375 26.457031 C 54.164062 30.765625 54.3125 35.074219 54.445312 39.550781 C 54.453125 39.945312 54.457031 40.171875 54.464844 40.398438 Z M 54.464844 40.398438 "/>
<path style=" stroke:none;fill-rule:nonzero;fill:rgb(9.019608%,76.47059%,100%);fill-opacity:1;" d="M 6.808594 18.554688 C 11.375 16.476562 15.933594 14.378906 20.53125 12.371094 C 20.957031 12.183594 21.707031 12.480469 22.199219 12.746094 C 25.636719 14.609375 29.046875 16.519531 32.875 18.644531 C 27.75 21.367188 22.808594 23.996094 17.5625 26.613281 C 13.777344 23.914062 10.292969 21.234375 6.808594 18.554688 Z M 6.808594 18.554688 "/>
<path style=" stroke:none;fill-rule:nonzero;fill:rgb(18.82353%,78.431374%,99.215686%);fill-opacity:1;" d="M 6.605469 18.617188 C 10.292969 21.234375 13.777344 23.914062 17.40625 26.679688 C 17.550781 31.671875 17.550781 36.578125 17.550781 42.050781 C 14.410156 39.105469 11.875 36.183594 8.808594 34.019531 C 6.296875 32.246094 6.210938 30.15625 6.296875 27.640625 C 6.402344 24.660156 6.375 21.671875 6.605469 18.617188 Z M 6.605469 18.617188 "/>
<path style=" stroke:none;fill-rule:nonzero;fill:rgb(7.450981%,71.764708%,95.686275%);fill-opacity:1;" d="M 54.441406 39.378906 C 54.3125 35.074219 54.164062 30.765625 54.09375 26.457031 C 54.085938 26.082031 54.546875 25.605469 54.90625 25.339844 C 57.542969 23.371094 60.207031 21.449219 63.027344 19.707031 C 63.039062 24.144531 62.882812 28.386719 62.730469 32.628906 C 62.1875 33.226562 61.648438 33.824219 60.785156 34.480469 C 59.730469 34.960938 58.914062 35.285156 58.277344 35.824219 C 56.949219 36.949219 55.714844 38.1875 54.441406 39.378906 Z M 54.441406 39.378906 "/>
<path style=" stroke:none;fill-rule:nonzero;fill:rgb(7.058824%,74.117649%,97.647059%);fill-opacity:1;" d="M 62.925781 32.59375 C 62.882812 28.386719 63.039062 24.144531 63.195312 19.675781 C 63.324219 19.191406 63.453125 18.933594 63.644531 18.550781 C 63.859375 20.03125 64.097656 21.644531 64.148438 23.261719 C 64.222656 25.660156 64.246094 28.066406 64.121094 30.464844 C 64.082031 31.175781 63.46875 31.859375 62.925781 32.59375 Z M 62.925781 32.59375 "/>
<path style=" stroke:none;fill-rule:nonzero;fill:rgb(7.058824%,74.117649%,97.647059%);fill-opacity:1;" d="M 54.445312 39.550781 C 55.714844 38.1875 56.949219 36.949219 58.277344 35.824219 C 58.914062 35.285156 59.730469 34.960938 60.644531 34.539062 C 58.816406 36.46875 56.808594 38.40625 54.632812 40.367188 C 54.457031 40.171875 54.453125 39.945312 54.445312 39.550781 Z M 54.445312 39.550781 "/>
</g>
</svg>
