<svg version="1.1" id="Layer_1" xmlns="http://www.w3.org/2000/svg" xmlns:xlink="http://www.w3.org/1999/xlink" x="0px" y="0px"
	 width="100%" viewBox="0 0 144 144" enable-background="new 0 0 144 144" xml:space="preserve">
<path fill="#000000" opacity="1.000000" stroke="none" 
	d="
M88.000000,145.000000 
	C58.691711,145.000000 29.883423,145.000000 1.037568,145.000000 
	C1.037568,97.066765 1.037568,49.133492 1.037568,1.100108 
	C48.891380,1.100108 96.783035,1.100108 144.837341,1.100108 
	C144.837341,48.999554 144.837341,96.999733 144.837341,145.000000 
	C126.133873,145.000000 107.316933,145.000000 88.000000,145.000000 
M125.705704,70.812187 
	C126.818634,69.583427 127.931557,68.354660 129.849487,66.969177 
	C130.566666,65.537216 131.824997,64.133804 131.902283,62.668098 
	C132.162186,57.739849 132.117035,52.785767 131.961288,47.848743 
	C131.856400,44.523884 131.367935,41.211121 130.716385,37.244675 
	C123.872269,34.371387 116.848305,31.854292 110.238533,28.516888 
	C104.514465,25.626694 99.419121,24.448004 93.992172,28.935890 
	C91.909279,30.658361 89.220261,31.633648 86.862206,33.041161 
	C83.772079,34.885647 80.736176,36.820965 77.663673,38.725441 
	C87.119797,43.685684 95.876320,48.544037 104.890579,52.864643 
	C108.076324,54.391594 109.200943,56.045589 109.100777,59.517220 
	C108.849884,68.213409 109.017937,76.921700 109.017937,86.645767 
	C110.556404,84.843048 111.298012,83.974060 112.729431,82.984138 
	C116.860245,79.003815 120.991058,75.023483 125.705704,70.812187 
M13.179941,38.435711 
	C13.117657,44.578667 13.171073,50.725651 12.957506,56.863342 
	C12.777573,62.034451 12.952292,66.337761 18.118563,69.982925 
	C24.430353,74.436340 29.643808,80.446426 36.104755,86.508118 
	C36.104755,75.249680 36.104755,65.153046 36.755161,54.773624 
	C46.922207,49.365269 57.089256,43.956913 67.627113,38.351303 
	C59.751106,33.983547 52.737339,30.049711 45.666084,26.222078 
	C44.651360,25.672810 43.110802,25.066730 42.233665,25.449518 
	C32.774849,29.577436 23.400280,33.898411 13.179941,38.435711 
M72.207283,119.685471 
	C73.289268,119.140915 74.553589,118.799217 75.422791,118.017937 
	C80.061028,113.848831 84.650017,109.621704 89.160782,105.314873 
	C94.103439,100.595688 98.942352,95.767845 103.962914,90.060448 
	C103.962914,79.581200 103.962914,69.101944 103.962914,58.665894 
	C93.434242,52.826931 82.958000,47.017048 72.508614,41.222054 
	C62.357239,46.857956 52.171009,52.513210 41.169422,58.450108 
	C41.112350,68.598305 41.030174,78.746521 41.036922,88.894684 
	C41.037601,89.913162 41.251324,91.286621 41.915806,91.896240 
	C51.858139,101.017693 61.892956,110.038330 72.207283,119.685471 
z"/>
<path fill="#17C2FF" opacity="1.000000" stroke="none" 
	d="
M41.984779,58.168465 
	C52.171009,52.513210 62.357239,46.857956 72.508614,41.222054 
	C82.958000,47.017048 93.434242,52.826931 103.962914,58.665894 
	C103.962914,69.101944 103.962914,79.581200 103.551422,90.354111 
	C102.759888,88.109573 102.106972,85.577271 102.052094,83.032066 
	C101.900826,76.015236 101.999802,68.992996 101.999802,61.972897 
	C101.502991,61.762749 101.006180,61.552597 100.509361,61.342445 
	C91.323380,68.573105 82.137390,75.803772 72.670380,82.854248 
	C67.234718,78.764725 61.985966,74.972137 56.951763,70.913429 
	C51.852318,66.802109 46.965008,62.427662 41.984779,58.168465 
z"/>
<path fill="#30C7FD" opacity="1.000000" stroke="none" 
	d="
M41.577103,58.309288 
	C46.965008,62.427662 51.852318,66.802109 56.951763,70.913429 
	C61.985966,74.972137 67.234718,78.764725 72.679382,83.319122 
	C72.972610,93.761719 73.032265,103.559837 72.930420,113.356277 
	C72.910545,115.268433 72.263664,117.174072 71.905983,119.082718 
	C61.892956,110.038330 51.858139,101.017693 41.915806,91.896240 
	C41.251324,91.286621 41.037601,89.913162 41.036922,88.894684 
	C41.030174,78.746521 41.112350,68.598305 41.577103,58.309288 
z"/>
<path fill="#13B7F4" opacity="1.000000" stroke="none" 
	d="
M72.056633,119.384094 
	C72.263664,117.174072 72.910545,115.268433 72.930420,113.356277 
	C73.032265,103.559837 72.972610,93.761719 72.960403,83.499313 
	C82.137390,75.803772 91.323380,68.573105 100.509361,61.342445 
	C101.006180,61.552597 101.502991,61.762749 101.999802,61.972897 
	C101.999802,68.992996 101.900826,76.015236 102.052094,83.032066 
	C102.106972,85.577271 102.759888,88.109573 103.483200,90.817558 
	C98.942352,95.767845 94.103439,100.595688 89.160782,105.314873 
	C84.650017,109.621704 80.061028,113.848831 75.422791,118.017937 
	C74.553589,118.799217 73.289268,119.140915 72.056633,119.384094 
z"/>
<path fill="#17C2FF" opacity="1.000000" stroke="none" 
	d="
M112.039612,83.105072 
	C111.298012,83.974060 110.556404,84.843048 109.017937,86.645767 
	C109.017937,76.921700 108.849884,68.213409 109.100777,59.517220 
	C109.200943,56.045589 108.076324,54.391594 104.890579,52.864643 
	C95.876320,48.544037 87.119797,43.685684 77.663673,38.725441 
	C80.736176,36.820965 83.772079,34.885647 86.862206,33.041161 
	C89.220261,31.633648 91.909279,30.658361 93.992172,28.935890 
	C99.419121,24.448004 104.514465,25.626694 110.238533,28.516888 
	C116.848305,31.854292 123.872269,34.371387 130.756317,37.834755 
	C130.530441,38.951477 130.264648,39.478119 129.659027,40.071312 
	C123.855148,44.122963 118.371414,48.081673 112.949997,52.123970 
	C112.207253,52.677776 111.264252,53.655865 111.276604,54.423641 
	C111.419235,63.287605 111.728294,72.148888 111.999512,81.359879 
	C112.017128,82.174271 112.028374,82.639664 112.039612,83.105072 
z"/>
<path fill="#17C3FF" opacity="1.000000" stroke="none" 
	d="
M14.002674,38.166595 
	C23.400280,33.898411 32.774849,29.577436 42.233665,25.449518 
	C43.110802,25.066730 44.651360,25.672810 45.666084,26.222078 
	C52.737339,30.049711 59.751106,33.983547 67.627113,38.351303 
	C57.089256,43.956913 46.922207,49.365269 36.131538,54.744156 
	C28.339504,49.198654 21.171089,43.682625 14.002674,38.166595 
z"/>
<path fill="#30C8FD" opacity="1.000000" stroke="none" 
	d="
M13.591308,38.301155 
	C21.171089,43.682625 28.339504,49.198654 35.806335,54.885544 
	C36.104755,65.153046 36.104755,75.249680 36.104755,86.508118 
	C29.643808,80.446426 24.430353,74.436340 18.118563,69.982925 
	C12.952292,66.337761 12.777573,62.034451 12.957506,56.863342 
	C13.171073,50.725651 13.117657,44.578667 13.591308,38.301155 
z"/>
<path fill="#13B7F4" opacity="1.000000" stroke="none" 
	d="
M111.993141,81.010887 
	C111.728294,72.148888 111.419235,63.287605 111.276604,54.423641 
	C111.264252,53.655865 112.207253,52.677776 112.949997,52.123970 
	C118.371414,48.081673 123.855148,44.122963 129.658997,40.539421 
	C129.680679,49.669292 129.362595,58.397602 129.044495,67.125900 
	C127.931557,68.354660 126.818634,69.583427 125.045265,70.934738 
	C122.873306,71.921921 121.192245,72.586327 119.885483,73.692780 
	C117.150223,76.008751 114.612175,78.557648 111.993141,81.010887 
z"/>
<path fill="#12BDF9" opacity="1.000000" stroke="none" 
	d="
M129.446991,67.047546 
	C129.362595,58.397602 129.680679,49.669292 129.998810,40.472874 
	C130.264648,39.478119 130.530441,38.951477 130.923645,38.158890 
	C131.367935,41.211121 131.856400,44.523884 131.961288,47.848743 
	C132.117035,52.785767 132.162186,57.739849 131.902283,62.668098 
	C131.824997,64.133804 130.566666,65.537216 129.446991,67.047546 
z"/>
<path fill="#12BDF9" opacity="1.000000" stroke="none" 
	d="
M111.999512,81.359879 
	C114.612175,78.557648 117.150223,76.008751 119.885483,73.692780 
	C121.192245,72.586327 122.873306,71.921921 124.753349,71.050232 
	C120.991058,75.023483 116.860245,79.003815 112.384521,83.044601 
	C112.028374,82.639664 112.017128,82.174271 111.999512,81.359879 
z"/>
</svg>